PathFileType	4	(X/Y/Z)	/Users/itak/Documents/Research/Walk-IL/dataset/trc/00037_00004.trc
DataRate	CameraRate	NumFrames	NumMarkers	Units	OrigDataRate	OrigDataStartFrame	OrigNumFrames
100.000000	100.000000	4	53	mm	100.000000	0	778
Frame#	Time	RPSI			LPSI			L3			STRN			T10			C7			CLAV			RBAK			LBAK			LSHO			LUPA			LAEL			LAOL			LWTS			LWPS			LFRA			LIFD			LHPS			LHTS			RSHO			RUPA			RAEL			RAOL			RWTS			RWPS			RFRA			RIFD			RHTS			RHPS			RBHD			LFHD			RFHD			LBHD			RHIP			RASI			LASI			LKNE			LTHI			LANK			LTIP			LTOE			LMT1			LMT5			LHEE			RKNE			RTHI			RANK			RTIP			RTOE			RMT1			RMT5			RHEE			LHIP			
		X1	Y1	Z1	X2	Y2	Z2	X3	Y3	Z3	X4	Y4	Z4	X5	Y5	Z5	X6	Y6	Z6	X7	Y7	Z7	X8	Y8	Z8	X9	Y9	Z9	X10	Y10	Z10	X11	Y11	Z11	X12	Y12	Z12	X13	Y13	Z13	X14	Y14	Z14	X15	Y15	Z15	X16	Y16	Z16	X17	Y17	Z17	X18	Y18	Z18	X19	Y19	Z19	X20	Y20	Z20	X21	Y21	Z21	X22	Y22	Z22	X23	Y23	Z23	X24	Y24	Z24	X25	Y25	Z25	X26	Y26	Z26	X27	Y27	Z27	X28	Y28	Z28	X29	Y29	Z29	X30	Y30	Z30	X31	Y31	Z31	X32	Y32	Z32	X33	Y33	Z33	X34	Y34	Z34	X35	Y35	Z35	X36	Y36	Z36	X37	Y37	Z37	X38	Y38	Z38	X39	Y39	Z39	X40	Y40	Z40	X41	Y41	Z41	X42	Y42	Z42	X43	Y43	Z43	X44	Y44	Z44	X45	Y45	Z45	X46	Y46	Z46	X47	Y47	Z47	X48	Y48	Z48	X49	Y49	Z49	X50	Y50	Z50	X51	Y51	Z51	X52	Y52	Z52	X53	Y53	Z53	

1	0	461.6376037597656	1067.801391601562	943.5667114257812	495.1971740722656	1057.607788085938	1104.873413085938	490.9678955078125	1116.603637695312	1032.520385742188	286.3617553710938	1320.275146484375	1065.723754882812	529.6267700195312	1260.609008789062	1032.480590820312	494.7829895019531	1530.501342773438	1052.866943359375	334.5375061035156	1443.904907226562	1066.2353515625	531.3985595703125	1392.594604492188	965.0617065429688	524.164794921875	1486.619995117188	1145.597045898438	434.3643493652344	1495.983764648438	1232.717895507812	474.0014343261719	1368.634399414062	1303.459228515625	475.0848083496094	1150.77099609375	1324.7392578125	515.0712280273438	1139.9130859375	1227.438598632812	378.736083984375	897.9530029296875	1276.198120117188	460.2014770507812	883.5589599609375	1309.472778320312	461.4593200683594	1034.65380859375	1331.157470703125	354.6517333984375	712.8612670898438	1253.406982421875	427.9581604003906	793.2155151367188	1309.537231445312	359.6452941894531	802.8562622070312	1287.785766601562	398.2127380371094	1521.91845703125	888.8483276367188	402.3547058105469	1454.099731445312	815.2190551757812	436.3574523925781	1185.98779296875	781.4542236328125	442.1739501953125	1156.47265625	876.9327392578125	302.6845397949219	928.8705444335938	815.9027709960938	360.8511962890625	913.6152954101562	745.2818603515625	420.6651000976562	1110.19482421875	765.0161743164062	288.2193603515625	753.331787109375	838.3328247070312	262.1203308105469	822.8229370117188	802.603759765625	314.3589477539062	814.4180297851562	747.9151611328125	438.9874267578125	1718.759887695312	1131.528442382812	243.091064453125	1719.7841796875	1035.350830078125	257.6845397949219	1714.1689453125	1132.51708984375	412.4311828613281	1724.223022460938	989.8426513671875	327.7023620605469	956.2599487304688	867.4798583984375	241.5087280273438	994.2731323242188	957.0469360351562	290.174072265625	1009.025756835938	1187.481811523438	372.7650756835938	515.714111328125	1182.01513671875	398.2846374511719	653.5443115234375	1216.100708007812	473.6298522949219	40.38378524780273	1168.179443359375	458.025390625	286.9896545410156	1190.165161132812	248.3923797607422	39.21299362182617	1125.816162109375	305.9675903320312	48.6562614440918	1103.786010742188	353.3273620605469	37.38089370727539	1201.319946289062	537.150634765625	46.4404182434082	1109.029907226562	344.2433166503906	520.4351806640625	917.1705932617188	312.6985778808594	789.0617065429688	875.5657958984375	468.0039672851562	44.33513259887695	928.645751953125	374.9326782226562	399.9247741699219	914.2843627929688	239.7025146484375	42.00214004516602	991.0460815429688	306.2201538085938	44.75605010986328	1015.252319335938	317.4336547851562	42.12569046020508	920.2708129882812	527.1822509765625	45.19602966308594	968.6953125	nan	nan	nan	
2	0.01	461.655517578125	1067.79833984375	943.553466796875	495.1542053222656	1057.609130859375	1104.86865234375	490.9403686523438	1116.597900390625	1032.517578125	286.3688354492188	1320.2685546875	1065.692138671875	529.5657958984375	1260.611083984375	1032.53076171875	494.7244262695312	1530.493896484375	1052.967895507812	334.514404296875	1443.905029296875	1066.23486328125	531.4195556640625	1392.604248046875	965.1410522460938	524.1061401367188	1486.586059570312	1145.679321289062	434.2657165527344	1495.955322265625	1232.808349609375	473.8482360839844	1368.563598632812	1303.507080078125	474.8476257324219	1150.695678710938	1324.74951171875	514.9534301757812	1139.855102539062	1227.450927734375	378.5185852050781	897.889404296875	1276.105224609375	459.9830322265625	883.4849243164062	1309.42236328125	461.2859802246094	1034.575805664062	1331.139404296875	354.3305969238281	712.5283203125	1253.25048828125	427.704345703125	793.1312866210938	1309.467895507812	359.3477478027344	802.7675170898438	1287.58447265625	398.2515258789062	1521.93994140625	888.8976440429688	402.4166259765625	1454.136474609375	815.2557373046875	436.4306335449219	1186.044311523438	781.4710693359375	442.2803344726562	1156.517456054688	876.9699096679688	303.2464599609375	928.6763916015625	815.66015625	361.5188598632812	913.6083984375	745.08984375	420.9584655761719	1110.271484375	765.0150146484375	289.3424377441406	753.0706787109375	838.1787719726562	263.0176696777344	822.5136108398438	802.3700561523438	315.1901550292969	814.2694702148438	747.6734008789062	439.3041076660156	1718.687377929688	1131.528076171875	243.5595703125	1720.124633789062	1035.163208007812	258.0927124023438	1714.542602539062	1132.3623046875	412.9405822753906	1724.106689453125	989.7993774414062	327.8066711425781	956.2606811523438	867.4176025390625	241.5044860839844	994.2766723632812	956.952392578125	290.1354064941406	1009.01220703125	1187.431640625	372.72216796875	515.7254028320312	1181.97119140625	398.2200012207031	653.535888671875	1216.072265625	473.62548828125	40.37432861328125	1168.171997070312	458.0019836425781	286.9874572753906	1190.143310546875	248.3934631347656	39.21358108520508	1125.8173828125	305.9631042480469	48.65424346923828	1103.783081054688	353.3257141113281	37.38877105712891	1201.324584960938	537.1473388671875	46.44381332397461	1109.032836914062	344.2589111328125	520.4368286132812	917.1481323242188	312.6750793457031	789.07373046875	875.4927978515625	468.009765625	44.33281326293945	928.6482543945312	374.9313354492188	399.9146728515625	914.259033203125	239.7074890136719	42.00094223022461	991.0381469726562	306.2279052734375	44.7559814453125	1015.255615234375	317.4311828613281	42.12606048583984	920.2714233398438	527.1829223632812	45.19235992431641	968.6934204101562	nan	nan	nan	
3	0.02	461.6795349121094	1067.793579101562	943.5364990234375	495.1013793945312	1057.607421875	1104.862670898438	490.9070129394531	1116.59033203125	1032.515502929688	286.3714904785156	1320.259155273438	1065.652465820312	529.4910888671875	1260.612426757812	1032.595336914062	494.6537475585938	1530.484130859375	1053.094116210938	334.4875183105469	1443.903930664062	1066.236572265625	531.4442138671875	1392.616333007812	965.243408203125	524.0245361328125	1486.5419921875	1145.788330078125	434.1462707519531	1495.923095703125	1232.92431640625	473.6541137695312	1368.480224609375	1303.567749023438	474.5535278320312	1150.604370117188	1324.76416015625	514.7924194335938	1139.783081054688	1227.471313476562	378.2488098144531	897.8023681640625	1275.996215820312	459.7050476074219	883.3955078125	1309.36572265625	461.0545654296875	1034.48291015625	1331.11962890625	353.9761657714844	712.1578979492188	1253.091796875	427.3884887695312	793.0323486328125	1309.384765625	359.0072021484375	802.669189453125	1287.367309570312	398.3011779785156	1521.967163085938	888.9600219726562	402.5001220703125	1454.181518554688	815.3048706054688	436.5337524414062	1186.116088867188	781.49755859375	442.4198303222656	1156.572265625	877.015380859375	303.9817504882812	928.4411010742188	815.3884887695312	362.3500366210938	913.6016845703125	744.8504638671875	421.31640625	1110.367553710938	765.0150146484375	290.7363586425781	752.7601928710938	837.9579467773438	264.0834655761719	822.1389770507812	802.0438842773438	316.2369079589844	814.0953979492188	747.3602905273438	439.7142028808594	1718.596557617188	1131.517700195312	244.1436462402344	1720.557373046875	1034.909301757812	258.5811767578125	1715.019897460938	1132.156372070312	413.5750122070312	1723.956176757812	989.7423706054688	327.93603515625	956.2606811523438	867.337646484375	241.4998931884766	994.2796630859375	956.8359985351562	290.0823059082031	1008.992980957031	1187.36474609375	372.6696166992188	515.7377319335938	1181.918701171875	398.1335144042969	653.5261840820312	1216.035278320312	473.6210021972656	40.36788940429688	1168.165161132812	457.9722900390625	286.9866333007812	1190.11669921875	248.3942718505859	39.21427154541016	1125.818603515625	305.9582214355469	48.65106201171875	1103.77978515625	353.3233032226562	37.39722061157227	1201.326904296875	537.1438598632812	46.44839859008789	1109.03564453125	344.2769775390625	520.438232421875	917.1193237304688	312.643310546875	789.0948486328125	875.3997192382812	468.0169982910156	44.3294792175293	928.6513671875	374.9321594238281	399.9041748046875	914.2265625	239.7115478515625	42.00038528442383	991.0302734375	306.236083984375	44.75730133056641	1015.258056640625	317.4292297363281	42.12666702270508	920.2718505859375	527.1838989257812	45.18730163574219	968.6909790039062	416.3825073242188	958.3904418945312	1226.602294921875	
4	0.03	461.7095031738281	1067.787353515625	943.5169677734375	495.0420227050781	1057.6015625	1104.856567382812	490.86962890625	1116.581420898438	1032.515258789062	286.3656616210938	1320.246459960938	1065.606811523438	529.4068603515625	1260.612426757812	1032.67333984375	494.5759582519531	1530.471801757812	1053.23974609375	334.4589233398438	1443.901245117188	1066.241333007812	531.4710693359375	1392.63037109375	965.3666381835938	523.92138671875	1486.48876953125	1145.921997070312	434.0108642578125	1495.889282226562	1233.059204101562	473.4257202148438	1368.3896484375	1303.639282226562	474.2196350097656	1150.50244140625	1324.783325195312	514.588134765625	1139.700439453125	1227.501831054688	377.9391784667969	897.6944580078125	1275.8798828125	459.3771057128906	883.2960205078125	1309.308349609375	460.7689819335938	1034.380737304688	1331.1005859375	353.6195068359375	711.7914428710938	1252.95751953125	427.0205993652344	792.92529296875	1309.2939453125	358.6513061523438	802.57275390625	1287.160034179688	398.3601684570312	1521.998779296875	889.033203125	402.60498046875	1454.232299804688	815.3661499023438	436.6700744628906	1186.20068359375	781.5352783203125	442.5827026367188	1156.634643554688	877.066650390625	304.8657836914062	928.1790771484375	815.1015014648438	363.3043823242188	913.5963745117188	744.573486328125	421.7177124023438	1110.479125976562	765.0159912109375	292.3119506835938	752.4227294921875	837.66259765625	265.2588195800781	821.723388671875	801.626953125	317.4544982910156	813.9105224609375	746.9841918945312	440.20263671875	1718.491943359375	1131.494873046875	244.8174743652344	1721.062255859375	1034.592041015625	259.1175537109375	1715.58154296875	1131.8984375	414.3064270019531	1723.774291992188	989.67333984375	328.0847473144531	956.259521484375	867.2431640625	241.4953460693359	994.2816772460938	956.702880859375	290.01416015625	1008.967834472656	1187.28173828125	372.6097717285156	515.7503662109375	1181.861206054688	398.0262145996094	653.5158081054688	1215.9912109375	473.6170043945312	40.36508941650391	1168.159545898438	457.9371337890625	286.9884643554688	1190.087158203125	248.3944702148438	39.21466064453125	1125.819702148438	305.9534606933594	48.64734649658203	1103.776733398438	353.32080078125	37.40456390380859	1201.325805664062	537.1408081054688	46.45410537719727	1109.037963867188	344.2963256835938	520.4385986328125	917.0848999023438	312.6078796386719	789.1246948242188	875.2906494140625	468.0248718261719	44.32566452026367	928.6549682617188	374.9352111816406	399.8946228027344	914.1880493164062	239.7137145996094	42.00087738037109	991.0230102539062	306.2434387207031	44.75945663452148	1015.259582519531	317.4278564453125	42.1273078918457	920.2719116210938	527.1851806640625	45.18122863769531	968.6881713867188	416.2753601074219	958.37451171875	1226.569458007812	
